<svg width="15" height="14" viewBox="0 0 15 14" fill="none" xmlns="http://www.w3.org/2000/svg">
<path d="M7.47964 0.250003C4.0535 0.246611 1.17511 2.82898 0.75 6.17692L1.54441 6.9318C1.59157 3.72941 4.26045 1.08919 7.45741 1.09937C10.7572 1.10972 13.4113 3.77402 13.4021 7.06717C13.3935 10.1909 10.9512 12.7578 7.88795 12.9602L8.67981 13.7127C11.7808 13.149 14.1837 10.4492 14.2486 7.17303C14.3241 3.35926 11.2754 0.252718 7.47964 0.250003Z" fill="#1C1F26"/>
<path d="M7.94972 6.77933C8.04471 6.77933 8.13173 6.77933 8.21893 6.77933C9.15057 6.77933 10.082 6.77933 11.0137 6.77933C11.3027 6.77933 11.4921 6.94439 11.4961 7.19867C11.5002 7.46195 11.2919 7.6706 11.0133 7.67094C9.8644 7.6728 8.71545 7.67297 7.56651 7.67094C7.26914 7.67043 7.08389 7.53777 7.02435 7.29333C7.01112 7.23904 7.00654 7.18154 7.00637 7.12539C7.00569 5.7264 7.00637 4.32724 7.00586 2.92825C7.00586 2.75539 7.04437 2.59814 7.16633 2.46853C7.34428 2.27939 7.61231 2.28143 7.78585 2.47413C7.89764 2.59831 7.94089 2.74674 7.94089 2.91078C7.94072 3.83224 7.94055 4.75353 7.94055 5.675C7.94055 6.02258 7.94072 6.37034 7.94123 6.71792C7.94123 6.73438 7.94564 6.75066 7.94955 6.77933H7.94972Z" fill="#1C1F26"/>
<path d="M0.853287 11.9475L1.53811 11.93L1.48382 9.70301L5.51065 13.5297L5.98393 13.0316L1.95711 9.20496L4.18647 9.14813L4.16645 8.46094L0.766602 8.54762L0.853287 11.9475Z" fill="#FF3B30"/>
</svg>
