<svg width="15" height="14" viewBox="0 0 15 14" fill="none" xmlns="http://www.w3.org/2000/svg">
<path d="M7.50693 0.250003C11.2875 0.252707 14.3238 3.34681 14.2486 7.14511C14.1758 10.8258 11.14 13.776 7.48564 13.7667C3.74089 13.7571 0.670959 10.656 0.751551 6.86245C0.829609 3.19052 3.85612 0.246455 7.50676 0.250003H7.50693ZM7.50778 12.9221C10.746 12.9314 13.3968 10.2877 13.4057 7.03969C13.4147 3.75974 10.7713 1.10611 7.48463 1.0958C4.27919 1.08566 1.60664 3.75078 1.59464 6.96957C1.58248 10.2502 4.22732 12.9126 7.50761 12.9221H7.50778Z" fill="#1C1F26"/>
<path d="M6.16855 8.63206L4.71215 7.17566C4.54978 7.01329 4.29179 7.01329 4.12959 7.17566C3.96722 7.33803 3.96722 7.59602 4.12959 7.75822L5.87322 9.50185C6.03558 9.66422 6.29764 9.66422 6.46 9.50185L10.8709 5.09496C11.0333 4.9326 11.0333 4.6746 10.8709 4.5124C10.7086 4.35003 10.4506 4.35003 10.2884 4.5124L6.16872 8.63206H6.16855Z" fill="#1CBECA"/>
</svg>
