<svg width="15" height="14" viewBox="0 0 15 14" fill="none" xmlns="http://www.w3.org/2000/svg">
<path d="M7.58811 0.250003C4.21687 0.246665 1.3846 2.78766 0.966309 6.08195L1.74799 6.82473C1.79439 3.67366 4.42051 1.07575 7.56624 1.08576C10.8131 1.09594 13.4247 3.71755 13.4157 6.95793C13.4072 10.0316 11.0041 12.5574 7.98988 12.7565L8.76905 13.4969C11.8203 12.9423 14.1847 10.2858 14.2486 7.06209C14.3229 3.30944 11.3231 0.252674 7.58811 0.250003Z" fill="#1C1F26"/>
<path d="M11.5399 7.08921C11.5439 7.34826 11.3389 7.55357 11.0649 7.55391C9.93432 7.55574 8.80378 7.55591 7.67325 7.55391C7.38081 7.5534 7.19836 7.42304 7.13978 7.18251C7.12676 7.1291 7.12225 7.07235 7.12208 7.01726C7.12142 5.64053 7.12208 4.26395 7.12158 2.88738C7.12158 2.71729 7.15964 2.56256 7.27949 2.43503C7.45475 2.24892 7.71831 2.25092 7.88924 2.44054C7.99924 2.56256 8.0418 2.70861 8.04163 2.87019C8.04163 3.77672 8.04163 4.68342 8.04163 5.58995C8.04163 5.93213 8.04163 6.27415 8.0423 6.61633C8.0423 6.63235 8.04647 6.64854 8.05048 6.67675H8.31538C9.23209 6.67675 10.1486 6.67659 11.0654 6.67675C11.3498 6.67692 11.5361 6.83916 11.5401 7.08937L11.5399 7.08921Z" fill="#1C1F26"/>
<path d="M5.79843 9.72889L5.12458 9.74608L5.178 11.9374L1.2157 8.17188L0.75 8.66195L4.7123 12.4273L2.51866 12.4832L2.53836 13.1594L5.88373 13.0741L5.79843 9.72872V9.72889Z" fill="#00AF6C"/>
</svg>
