<svg width="28" height="28" viewBox="0 0 28 28" fill="none" xmlns="http://www.w3.org/2000/svg">
<path d="M8.31361 17.938C7.94447 18.3071 7.92689 18.9663 8.3224 19.3442C8.70033 19.7397 9.3683 19.7222 9.73744 19.353L14.0001 15.0903L18.2628 19.353C18.6408 19.731 19.2911 19.7397 19.6691 19.3442C20.0646 18.9663 20.0558 18.3071 19.6779 17.9292L15.4152 13.6665L19.6779 9.4126C20.0558 9.02588 20.0646 8.37549 19.6691 7.99756C19.2911 7.60205 18.6408 7.61084 18.2628 7.98877L14.0001 12.2515L9.73744 7.98877C9.3683 7.61963 8.70033 7.60205 8.3224 7.99756C7.92689 8.37549 7.94447 9.03467 8.31361 9.40381L12.5763 13.6665L8.31361 17.938Z" fill="#A5A5A5"/>
</svg>
