<svg width="27" height="27" viewBox="0 0 27 27" fill="none" xmlns="http://www.w3.org/2000/svg">
<path d="M16.5 1.83341C16.0312 1.83341 15.6667 1.46883 15.6667 1.00008C15.6667 0.583415 16.0312 0.166748 16.5 0.166748C18.7917 0.166748 20.6667 2.04175 20.6667 4.33342C20.6667 4.80217 20.25 5.16675 19.8333 5.16675C19.3646 5.16675 19 4.80217 19 4.33342C19 2.97925 17.8542 1.83341 16.5 1.83341ZM4.83332 21.8334C5.24999 21.8334 5.66666 22.2501 5.66666 22.6667C5.66666 23.1355 5.24999 23.5001 4.83332 23.5001C2.48957 23.5001 0.666656 21.6772 0.666656 19.3334C0.666656 18.9167 1.03124 18.5001 1.49999 18.5001C1.91666 18.5001 2.33332 18.9167 2.33332 19.3334C2.33332 20.7397 3.42707 21.8334 4.83332 21.8334ZM22.5417 6.00008C24.7292 6.00008 26.5 7.77092 26.5 9.95842V17.0417C26.5 19.698 25.4583 22.198 23.5833 24.073C21.7604 25.8438 19.3646 26.8334 16.8125 26.8334C11.9167 26.8334 8.32291 22.5626 3.37499 17.6147C2.64582 16.8855 2.33332 16.0001 2.33332 15.0626C2.33332 15.0105 2.22916 13.448 3.58332 12.3542C3.32291 11.8334 3.16666 11.2605 3.16666 10.6876C3.16666 10.6355 3.11457 8.65633 4.88541 7.61467C4.88541 7.45842 4.88541 7.30217 4.88541 7.198C4.88541 5.21883 6.49999 3.60425 8.47916 3.60425C8.58332 3.60425 8.73957 3.60425 8.89582 3.65633C9.98957 1.78133 11.9687 1.83341 12.0208 1.83341C12.9583 1.83341 13.8958 2.25008 14.5729 2.92716L19.3125 7.66675C20.0417 6.67717 21.1875 6.00008 22.5417 6.00008ZM24 17.0417V9.95842C24 9.17717 23.3229 8.50008 22.5417 8.50008C21.2917 8.50008 21.0833 9.75008 21.0833 10.0626V12.9792L12.8021 4.698C12.5937 4.48967 12.2812 4.33342 12.0208 4.33342C11.3958 4.33342 10.9271 4.85425 10.9271 5.42717C10.9271 5.73967 11.0312 6.00008 11.2396 6.20842L16.9167 11.8855C17.0729 11.9897 17.125 12.198 17.125 12.4063C17.125 12.6147 17.0729 12.823 16.9167 12.9792C16.7604 13.0834 16.5521 13.1876 16.3958 13.1876C16.1875 13.1876 15.9792 13.0834 15.8229 12.9792L9.26041 6.41675C9.05207 6.20842 8.79166 6.10425 8.53124 6.10425C7.90624 6.10425 7.43749 6.62508 7.43749 7.198C7.43749 7.45842 7.54166 7.77092 7.74999 7.97925L14.3125 14.4897C14.4687 14.6459 14.5208 14.8542 14.5208 15.0626C14.5208 15.2188 14.4687 15.4272 14.3125 15.5834C14.1562 15.7397 13.9479 15.7917 13.7396 15.7917C13.5312 15.7917 13.375 15.7397 13.2187 15.5834L7.54166 9.90633C7.33332 9.698 7.02082 9.59383 6.76041 9.59383C6.13541 9.59383 5.66666 10.1147 5.66666 10.6876C5.66666 10.948 5.77082 11.2605 5.97916 11.4688L11.6562 17.0938C11.8125 17.2501 11.9167 17.4584 11.9167 17.6667C11.9167 17.8751 11.8125 18.0834 11.6562 18.1876C11.5 18.3438 11.3437 18.448 11.1354 18.448C10.9271 18.448 10.7187 18.3438 10.5625 18.1876L6.65624 14.2813C6.44791 14.073 6.18749 13.9688 5.87499 13.9688C5.30207 13.9688 4.83332 14.4376 4.83332 15.0626C4.83332 15.323 4.93749 15.6355 5.14582 15.8438C10.1458 20.8438 13.1146 24.3334 16.8125 24.3334C18.6875 24.3334 20.4583 23.6042 21.8125 22.3022C23.2187 20.8959 24 19.0209 24 17.0417Z" fill="white"/>
</svg>
