<svg width="25" height="24" viewBox="0 0 25 24" fill="none" xmlns="http://www.w3.org/2000/svg">
<path d="M20.9401 6.81774L15.1801 2.78774C13.6101 1.68774 11.2001 1.74774 9.69014 2.91774L4.68014 6.82774C3.68014 7.60774 2.89014 9.20774 2.89014 10.4677V17.3677C2.89014 19.9177 4.96014 21.9977 7.51014 21.9977H18.2901C20.8401 21.9977 22.9101 19.9277 22.9101 17.3777V10.5977C22.9101 9.24774 22.0401 7.58774 20.9401 6.81774ZM13.6501 17.9977C13.6501 18.4077 13.3101 18.7477 12.9001 18.7477C12.4901 18.7477 12.1501 18.4077 12.1501 17.9977V14.9977C12.1501 14.5877 12.4901 14.2477 12.9001 14.2477C13.3101 14.2477 13.6501 14.5877 13.6501 14.9977V17.9977Z" fill="#1C1F26"/>
</svg>
