<svg width="28" height="28" viewBox="0 0 28 28" fill="none" xmlns="http://www.w3.org/2000/svg">
<path d="M13.9998 0.666687C21.3436 0.666687 27.3332 6.65627 27.3332 14C27.3332 21.3959 21.3436 27.3334 13.9998 27.3334C6.604 27.3334 0.666504 21.3959 0.666504 14C0.666504 6.65627 6.604 0.666687 13.9998 0.666687ZM13.9998 24.8334C19.9373 24.8334 24.8332 19.9896 24.8332 14C24.8332 8.06252 19.9373 3.16669 13.9998 3.16669C8.01025 3.16669 3.1665 8.06252 3.1665 14C3.1665 19.9896 8.01025 24.8334 13.9998 24.8334ZM16.0832 18.1667C16.7603 18.1667 17.3332 18.7396 17.3332 19.4167C17.3332 20.1459 16.7603 20.6667 16.0832 20.6667H11.9165C11.1873 20.6667 10.6665 20.1459 10.6665 19.4167C10.6665 18.7396 11.1873 18.1667 11.9165 18.1667H12.7498V14.8334H12.3332C11.604 14.8334 11.0832 14.3125 11.0832 13.5834C11.0832 12.9063 11.604 12.3334 12.3332 12.3334H13.9998C14.6769 12.3334 15.2498 12.9063 15.2498 13.5834V18.1667H16.0832ZM13.9998 10.6667C13.0623 10.6667 12.3332 9.93752 12.3332 9.00002C12.3332 8.1146 13.0623 7.33335 13.9998 7.33335C14.8853 7.33335 15.6665 8.1146 15.6665 9.00002C15.6665 9.93752 14.8853 10.6667 13.9998 10.6667Z" fill="#142F8C"/>
</svg>
