<svg width="20" height="20" viewBox="0 0 20 20" fill="none" xmlns="http://www.w3.org/2000/svg">
<path d="M12.7001 18.562H12.5918C8.89176 18.562 7.10843 17.1036 6.80009 13.837C6.76676 13.4953 7.01676 13.187 7.36676 13.1536C7.70009 13.1203 8.01676 13.3786 8.05009 13.7203C8.29176 16.337 9.52509 17.312 12.6001 17.312H12.7084C16.1001 17.312 17.3001 16.112 17.3001 12.7203V7.28698C17.3001 3.89531 16.1001 2.69531 12.7084 2.69531H12.6001C9.50843 2.69531 8.27509 3.68698 8.05009 6.35365C8.00843 6.69531 7.71676 6.95365 7.36676 6.92031C7.01676 6.89531 6.76676 6.58698 6.79176 6.24531C7.07509 2.92865 8.86676 1.44531 12.5918 1.44531H12.7001C16.7918 1.44531 18.5418 3.19531 18.5418 7.28698V12.7203C18.5418 16.812 16.7918 18.562 12.7001 18.562Z" fill="#FF3B30"/>
<path d="M12.4999 10.625H3.0166C2.67493 10.625 2.3916 10.3417 2.3916 10C2.3916 9.65833 2.67493 9.375 3.0166 9.375H12.4999C12.8416 9.375 13.1249 9.65833 13.1249 10C13.1249 10.3417 12.8416 10.625 12.4999 10.625Z" fill="#FF3B30"/>
<path d="M4.87503 13.4172C4.7167 13.4172 4.55837 13.3589 4.43337 13.2339L1.6417 10.4422C1.40003 10.2005 1.40003 9.80052 1.6417 9.55885L4.43337 6.76719C4.67503 6.52552 5.07503 6.52552 5.3167 6.76719C5.55837 7.00885 5.55837 7.40885 5.3167 7.65052L2.9667 10.0005L5.3167 12.3505C5.55837 12.5922 5.55837 12.9922 5.3167 13.2339C5.20003 13.3589 5.03337 13.4172 4.87503 13.4172Z" fill="#FF3B30"/>
</svg>
