<svg width="25" height="24" viewBox="0 0 25 24" fill="none" xmlns="http://www.w3.org/2000/svg">
<path d="M14.7998 12C14.7998 13.3807 13.6805 14.5 12.2998 14.5C10.9191 14.5 9.7998 13.3807 9.7998 12C9.7998 10.6193 10.9191 9.5 12.2998 9.5C13.6805 9.5 14.7998 10.6193 14.7998 12Z" fill="#A5A5A5" stroke="#A5A5A5"/>
<path d="M17.2998 3.5H7.2998C4.2998 3.5 2.2998 5 2.2998 8.5V9V15V15.5C2.2998 19 4.2998 20.5 7.2998 20.5H17.2998C20.2998 20.5 22.2998 19 22.2998 15.5V15V9V8.5C22.2998 5 20.2998 3.5 17.2998 3.5ZM7.2998 19C7.2998 16.18 6.3898 15.14 3.7998 15.02V15V9V8.98C6.3898 8.86 7.2998 7.82 7.2998 5H17.2998C17.2998 7.82 18.2098 8.86 20.7998 8.98V9V15V15.02C18.2098 15.14 17.2998 16.18 17.2998 19H7.2998Z" fill="#A5A5A5"/>
</svg>
