<svg width="25" height="24" viewBox="0 0 25 24" fill="none" xmlns="http://www.w3.org/2000/svg">
<path fill-rule="evenodd" clip-rule="evenodd" d="M9.87012 19.0625C9.87012 19.675 10.1249 20.2466 10.5304 20.6522C10.936 21.0577 11.5076 21.3125 12.1201 21.3125C13.3559 21.3125 14.3701 20.2983 14.3701 19.0625H15.8701C15.8701 21.1267 14.1843 22.8125 12.1201 22.8125C11.0926 22.8125 10.1443 22.3873 9.46979 21.7128C8.79531 21.0384 8.37012 20.09 8.37012 19.0625H9.87012Z" fill="#A5A5A5"/>
<path fill-rule="evenodd" clip-rule="evenodd" d="M19.0446 12.7798C19.1298 13.0631 19.2321 13.3111 19.3263 13.4759L20.4729 15.3803C21.3785 16.8895 20.6546 18.8556 18.9864 19.4079C14.5224 20.899 9.70603 20.8989 5.24215 19.4075L5.23937 19.4066C4.39696 19.1214 3.7652 18.5319 3.48273 17.7691C3.19994 17.0054 3.29614 16.1457 3.75718 15.3795L4.9056 13.4721L4.90637 13.4708C5.01587 13.2867 5.13582 12.9928 5.22839 12.6593C5.32124 12.3248 5.36982 12.0108 5.36982 11.7961V8.90615C5.36982 6.06246 7.13396 3.62597 9.62614 2.63281C9.00963 3.40522 8.55318 4.311 8.30703 5.29994C7.4165 6.24102 6.86982 7.5107 6.86982 8.90615V11.7961C6.86982 12.1915 6.78839 12.6475 6.67374 13.0605C6.55902 13.4738 6.39432 13.9042 6.19403 14.2402L6.19235 14.243L5.04245 16.1528C4.7936 16.5665 4.77971 16.952 4.8894 17.2482C4.99932 17.5451 5.26216 17.8303 5.71893 17.9853C9.87427 19.3733 14.3569 19.3731 18.5121 17.9848L18.5144 17.9841C19.2652 17.7359 19.6008 16.8429 19.187 16.1526L18.0301 14.231C17.906 14.0159 17.7949 13.7614 17.7013 13.497C18.1771 13.3064 18.6271 13.0651 19.0446 12.7798Z" fill="#A5A5A5"/>
<circle cx="16.1001" cy="6" r="6" fill="#FF3B30"/>
</svg>
