<svg width="24" height="24" viewBox="0 0 24 24" fill="none" xmlns="http://www.w3.org/2000/svg">
<path fill-rule="evenodd" clip-rule="evenodd" d="M5.27021 8.90625C5.27021 5.18204 8.29599 2.15625 12.0202 2.15625C15.7344 2.15625 18.7702 5.19204 18.7702 8.90625V11.7963C18.7702 12.0111 18.8188 12.3256 18.911 12.6616C19.002 12.9936 19.1196 13.2886 19.2267 13.476L20.3733 15.3804C21.2789 16.8896 20.555 18.8557 18.8867 19.408C14.4228 20.8991 9.60642 20.899 5.14254 19.4076L5.13976 19.4067C4.29735 19.1215 3.66559 18.532 3.38312 17.7692C3.10033 17.0055 3.19653 16.1458 3.65757 15.3796L4.806 13.4722C4.80625 13.4718 4.8065 13.4713 4.80676 13.4709C4.91626 13.2868 5.03621 12.9929 5.12878 12.6594C5.22163 12.3249 5.27021 12.0109 5.27021 11.7963V8.90625ZM12.0202 3.65625C9.12442 3.65625 6.77021 6.01046 6.77021 8.90625V11.7963C6.77021 12.1916 6.68878 12.6476 6.57413 13.0606C6.45941 13.4739 6.29471 13.9043 6.09442 14.2403L6.09274 14.2431L4.94284 16.1529C4.94281 16.153 4.94288 16.1529 4.94284 16.1529C4.69399 16.5666 4.6801 16.9521 4.78979 17.2483C4.89971 17.5452 5.16255 17.8304 5.61932 17.9854C9.77466 19.3734 14.2573 19.3732 18.4125 17.9849L18.4148 17.9842C19.1656 17.736 19.5012 16.843 19.0874 16.1527C19.0873 16.1525 19.0875 16.1528 19.0874 16.1527L17.9305 14.2311C17.7384 13.8981 17.5775 13.4706 17.4644 13.0584C17.3516 12.6469 17.2702 12.1914 17.2702 11.7963V8.90625C17.2702 6.02046 14.906 3.65625 12.0202 3.65625Z" fill="#FF9500"/>
<path fill-rule="evenodd" clip-rule="evenodd" d="M9.47164 2.92384C9.87109 1.90456 10.8628 1.1875 12.0199 1.1875C13.1771 1.1875 14.1688 1.90456 14.5682 2.92384C14.6725 3.18992 14.6165 3.49213 14.4238 3.70318C14.2311 3.91423 13.9353 3.99744 13.6608 3.91776C13.3834 3.83722 13.1034 3.77644 12.8197 3.74205L12.8169 3.74171C11.9525 3.63366 11.1357 3.69779 10.3793 3.91769C10.1048 3.99747 9.80888 3.91432 9.61614 3.70327C9.42339 3.49222 9.36736 3.18996 9.47164 2.92384Z" fill="#FF9500"/>
<path fill-rule="evenodd" clip-rule="evenodd" d="M9.77002 19.0625C9.77002 19.675 10.0248 20.2466 10.4303 20.6522C10.8359 21.0577 11.4075 21.3125 12.02 21.3125C13.2558 21.3125 14.27 20.2983 14.27 19.0625H15.77C15.77 21.1267 14.0842 22.8125 12.02 22.8125C10.9925 22.8125 10.0442 22.3873 9.36969 21.7128C8.69521 21.0384 8.27002 20.09 8.27002 19.0625H9.77002Z" fill="#FF9500"/>
</svg>
