<svg width="18" height="19" viewBox="0 0 18 19" fill="none" xmlns="http://www.w3.org/2000/svg">
<path d="M3.75 6.5C2.505 6.5 1.5 7.505 1.5 8.75V14.75C1.5 15.995 2.505 17 3.75 17H4.875C5.7 17 6.375 16.325 6.375 15.5V8C6.375 7.175 5.7 6.5 4.875 6.5H3.75ZM4.5 13.25C4.5 13.5575 4.245 13.8125 3.9375 13.8125C3.63 13.8125 3.375 13.5575 3.375 13.25V10.25C3.375 9.9425 3.63 9.6875 3.9375 9.6875C4.245 9.6875 4.5 9.9425 4.5 10.25V13.25Z" fill="#A5A5A5"/>
<path d="M14.25 2H9.75C8.505 2 7.5 3.005 7.5 4.25V14.75C7.5 15.995 8.505 17 9.75 17H10.125C10.335 17 10.5 16.835 10.5 16.625V14C10.5 13.5875 10.8375 13.25 11.25 13.25H12.75C13.1625 13.25 13.5 13.5875 13.5 14V16.625C13.5 16.835 13.665 17 13.875 17H14.25C15.495 17 16.5 15.995 16.5 14.75V4.25C16.5 3.005 15.495 2 14.25 2ZM11.0625 10.25C11.0625 10.5575 10.8075 10.8125 10.5 10.8125C10.1925 10.8125 9.9375 10.5575 9.9375 10.25V6.5C9.9375 6.1925 10.1925 5.9375 10.5 5.9375C10.8075 5.9375 11.0625 6.1925 11.0625 6.5V10.25ZM14.0625 10.25C14.0625 10.5575 13.8075 10.8125 13.5 10.8125C13.1925 10.8125 12.9375 10.5575 12.9375 10.25V6.5C12.9375 6.1925 13.1925 5.9375 13.5 5.9375C13.8075 5.9375 14.0625 6.1925 14.0625 6.5V10.25Z" fill="#A5A5A5"/>
</svg>
