<svg width="20" height="20" viewBox="0 0 20 20" fill="none" xmlns="http://www.w3.org/2000/svg">
<path d="M14.1333 5.14062C15.8 6.29896 16.95 8.14062 17.1833 10.2656" stroke="#666666" stroke-width="1.5" stroke-linecap="round" stroke-linejoin="round"/>
<path d="M2.9082 10.3047C3.12487 8.18802 4.2582 6.34635 5.9082 5.17969" stroke="#666666" stroke-width="1.5" stroke-linecap="round" stroke-linejoin="round"/>
<path d="M6.8252 17.4531C7.79186 17.9448 8.89186 18.2198 10.0502 18.2198C11.1669 18.2198 12.2169 17.9698 13.1585 17.5115" stroke="#666666" stroke-width="1.5" stroke-linecap="round" stroke-linejoin="round"/>
<path d="M10.0501 6.41458C11.3295 6.41458 12.3667 5.37738 12.3667 4.09792C12.3667 2.81846 11.3295 1.78125 10.0501 1.78125C8.77061 1.78125 7.7334 2.81846 7.7334 4.09792C7.7334 5.37738 8.77061 6.41458 10.0501 6.41458Z" stroke="#666666" stroke-width="1.5" stroke-linecap="round" stroke-linejoin="round"/>
<path d="M4.02516 16.6021C5.30462 16.6021 6.34183 15.5649 6.34183 14.2854C6.34183 13.006 5.30462 11.9688 4.02516 11.9688C2.7457 11.9688 1.7085 13.006 1.7085 14.2854C1.7085 15.5649 2.7457 16.6021 4.02516 16.6021Z" stroke="#666666" stroke-width="1.5" stroke-linecap="round" stroke-linejoin="round"/>
<path d="M15.9749 16.6021C17.2543 16.6021 18.2915 15.5649 18.2915 14.2854C18.2915 13.006 17.2543 11.9688 15.9749 11.9688C14.6954 11.9688 13.6582 13.006 13.6582 14.2854C13.6582 15.5649 14.6954 16.6021 15.9749 16.6021Z" stroke="#666666" stroke-width="1.5" stroke-linecap="round" stroke-linejoin="round"/>
</svg>
